<?xml version="1.0" encoding="UTF-8"?>
<svg width="100pt" height="100pt" version="1.1" viewBox="0 0 100 100" xmlns="http://www.w3.org/2000/svg">
 <g>
  <path d="m45 37c0 5.332-8 5.332-8 0s8-5.332 8 0"/>
  <path d="m63 37c0 5.332-8 5.332-8 0s8-5.332 8 0"/>
  <path d="m35 56h11v9h-8.1914c-3.7148-0.003906-7.1914 1.8555-9.25 4.9492l-3.8906 5.8281 0.003906 0.003906c-0.58984 0.88281-0.80469 1.9609-0.59766 3.0039 0.21094 1.0391 0.82422 1.957 1.707 2.543 1.8359 1.2266 4.3242 0.73047 5.5469-1.1094l3.8906-5.8281c0.57812-0.86719 1.5508-1.3906 2.5898-1.3906h24.383c1.0391 0 2.0117 0.52344 2.5898 1.3906l3.8906 5.8281c1.2227 1.8398 3.7109 2.3359 5.5469 1.1094 1.8398-1.2227 2.3359-3.7109 1.1094-5.5469l-3.8906-5.8281 0.003906-0.003906c-2.0586-3.0938-5.5352-4.9531-9.25-4.9492h-8.1914v-9h11c7.7305 0 14-6.2695 14-14v-10c0-3.7148-1.4766-7.2734-4.1016-9.8984s-6.1836-4.1016-9.8984-4.1016h-30c-7.7305 0-14 6.2695-14 14v10c0 7.7305 6.2695 14 14 14zm-6-24c0-3.3125 2.6875-6 6-6h30c3.3125 0 6 2.6875 6 6v10c0 3.3125-2.6875 6-6 6h-30c-3.3125 0-6-2.6875-6-6z"/>
 </g>
</svg>
